#N canvas 225 204 906 514 10;
#X obj 31 215 osc~ 400;
#X obj 104 215 noise~;
#X obj 32 272 +~;
#X obj 158 291 line~;
#X msg 160 257 1 \, 0 500;
#X obj 33 298 hip~ 2000;
#X obj 160 333 unsig~;
#X floatatom 155 376 5 0 0 0 - - -;
#X obj 30 343 *~;
#X obj 392 225 noise~;
#X obj 320 282 +~;
#X obj 446 301 line~;
#X obj 321 308 hip~ 2000;
#X obj 448 343 unsig~;
#X floatatom 443 386 5 0 0 0 - - -;
#X obj 318 353 *~;
#X msg 448 267 1 \, 0 100;
#X obj 592 256 noise~;
#X obj 520 313 +~;
#X obj 646 332 line~;
#X obj 648 374 unsig~;
#X floatatom 643 417 5 0 0 0 - - -;
#X obj 518 384 *~;
#X obj 562 289 *~ 0.5;
#X msg 648 298 1 \, 0 100;
#X obj 520 340 lop~ 1000;
#X obj 530 235 osc~ 50;
#X obj 362 37 metro;
#X floatatom 400 9 5 0 0 0 - - -;
#X obj 364 9 tgl 15 0 empty empty empty 17 7 0 10 -262144 -1 -1 0 1
;
#X obj 363 65 count 8;
#X obj 360 91 select 0 1 2 3 4 5 6 7;
#X obj 355 119 bng 15 250 50 0 empty empty empty 17 7 0 10 -262144
-1 -1;
#X obj 379 118 bng 15 250 50 0 empty empty empty 17 7 0 10 -262144
-1 -1;
#X obj 404 118 bng 15 250 50 0 empty empty empty 17 7 0 10 -262144
-1 -1;
#X obj 428 121 bng 15 250 50 0 empty empty empty 17 7 0 10 -262144
-1 -1;
#X obj 452 119 bng 15 250 50 0 empty empty empty 17 7 0 10 -262144
-1 -1;
#X obj 476 118 bng 15 250 50 0 empty empty empty 17 7 0 10 -262144
-1 -1;
#X obj 501 118 bng 15 250 50 0 empty empty empty 17 7 0 10 -262144
-1 -1;
#X obj 525 121 bng 15 250 50 0 empty empty empty 17 7 0 10 -262144
-1 -1;
#X obj 73 250 *~ 0.1;
#X obj 362 258 *~ 0.1;
#X obj 804 257 noise~;
#X obj 732 314 +~;
#X obj 858 333 line~;
#X obj 860 375 unsig~;
#X floatatom 855 418 5 0 0 0 - - -;
#X obj 730 385 *~;
#X msg 860 299 1 \, 0 100;
#X obj 742 236 osc~ 50;
#X obj 774 290 *~ 0.1;
#X obj 732 341 lop~ 100;
#X obj 1030 245 noise~;
#X obj 958 302 +~;
#X obj 1084 321 line~;
#X obj 1086 363 unsig~;
#X floatatom 1081 406 5 0 0 0 - - -;
#X obj 956 373 *~;
#X obj 1000 278 *~ 0.1;
#X msg 1086 287 1 \, 0 500;
#X obj 960 329 hip~ 6000;
#X floatatom 1151 275 5 0 0 0 - - -;
#X obj 1093 248 random 7000;
#X obj 37 417 s~ dac;
#X obj 305 530 r~ dac;
#X obj 278 456 s~ dac2;
#X obj 511 478 s~ dac3;
#X obj 946 487 s~ dac4;
#X obj 731 485 s~ dac5;
#X obj 321 520 r~ dac2;
#X obj 371 520 r~ dac3;
#X obj 422 520 r~ dac4;
#X obj 473 520 r~ dac5;
#X obj 226 227 random 400;
#X floatatom 265 267 5 0 0 0 - - -;
#X obj 40 390 *~ 0.1;
#X obj 101 371 vsl 15 128 0 2 0 0 empty empty empty 0 -9 0 10 -262144
-1 -1 0 1;
#X obj 316 388 *~ 0.1;
#X obj 377 369 vsl 15 128 0 2 0 0 empty empty empty 0 -9 0 10 -262144
-1 -1 0 1;
#X obj 524 428 *~ 0.1;
#X obj 590 378 vsl 15 128 0 2 0 0 empty empty empty 0 -9 0 10 -262144
-1 -1 0 1;
#X obj 730 432 *~ 0.1;
#X obj 796 382 vsl 15 128 0 2 0 0 empty empty empty 0 -9 0 10 -262144
-1 -1 0 1;
#X obj 968 427 *~ 0.1;
#X obj 1034 377 vsl 15 128 0 2 0 0 empty empty empty 0 -9 0 10 -262144
-1 -1 0 1;
#X obj 5 16 inlet;
#X obj 58 17 inlet;
#X obj 110 16 inlet;
#X obj 160 15 inlet;
#X obj 203 16 inlet;
#X obj 246 17 inlet;
#X obj 292 11 inlet;
#X obj 486 589 outlet~;
#X connect 0 0 2 0;
#X connect 1 0 40 0;
#X connect 2 0 5 0;
#X connect 3 0 6 0;
#X connect 3 0 8 1;
#X connect 4 0 3 0;
#X connect 5 0 8 0;
#X connect 6 0 7 0;
#X connect 8 0 75 0;
#X connect 9 0 41 0;
#X connect 10 0 12 0;
#X connect 11 0 13 0;
#X connect 11 0 15 1;
#X connect 12 0 15 0;
#X connect 13 0 14 0;
#X connect 15 0 77 0;
#X connect 16 0 11 0;
#X connect 17 0 23 0;
#X connect 18 0 25 0;
#X connect 19 0 20 0;
#X connect 19 0 22 1;
#X connect 20 0 21 0;
#X connect 22 0 79 0;
#X connect 23 0 18 1;
#X connect 24 0 19 0;
#X connect 25 0 22 0;
#X connect 26 0 18 0;
#X connect 27 0 30 0;
#X connect 28 0 27 1;
#X connect 29 0 27 0;
#X connect 30 0 31 0;
#X connect 31 0 32 0;
#X connect 31 1 33 0;
#X connect 31 2 34 0;
#X connect 31 3 35 0;
#X connect 31 4 36 0;
#X connect 31 5 37 0;
#X connect 31 6 38 0;
#X connect 31 7 39 0;
#X connect 32 0 24 0;
#X connect 33 0 16 0;
#X connect 33 0 59 0;
#X connect 33 0 62 0;
#X connect 34 0 16 0;
#X connect 36 0 4 0;
#X connect 36 0 73 0;
#X connect 38 0 16 0;
#X connect 39 0 48 0;
#X connect 40 0 2 1;
#X connect 41 0 10 1;
#X connect 42 0 50 0;
#X connect 43 0 51 0;
#X connect 44 0 45 0;
#X connect 44 0 47 1;
#X connect 45 0 46 0;
#X connect 47 0 81 0;
#X connect 48 0 44 0;
#X connect 49 0 43 0;
#X connect 50 0 43 1;
#X connect 51 0 47 0;
#X connect 52 0 58 0;
#X connect 53 0 60 0;
#X connect 54 0 55 0;
#X connect 54 0 57 1;
#X connect 55 0 56 0;
#X connect 57 0 83 0;
#X connect 58 0 53 1;
#X connect 59 0 54 0;
#X connect 60 0 57 0;
#X connect 62 0 60 1;
#X connect 62 0 61 0;
#X connect 64 0 92 0;
#X connect 69 0 92 0;
#X connect 70 0 92 0;
#X connect 71 0 92 0;
#X connect 72 0 92 0;
#X connect 73 0 74 0;
#X connect 75 0 63 0;
#X connect 76 0 75 1;
#X connect 77 0 65 0;
#X connect 78 0 77 1;
#X connect 79 0 66 0;
#X connect 80 0 79 1;
#X connect 81 0 68 0;
#X connect 82 0 81 1;
#X connect 83 0 67 0;
#X connect 84 0 83 1;
#X connect 85 0 27 0;
#X connect 86 0 75 1;
#X connect 87 0 77 1;
#X connect 88 0 79 1;
#X connect 89 0 81 1;
#X connect 90 0 83 1;
#X connect 91 0 27 1;
