#N canvas 359 92 824 673 10;
#X obj 186 342 dac~;
#X obj 183 156 drum_machine;
#X obj 127 25 tgl 15 0 empty empty empty 17 7 0 10 -262144 -1 -1 0
1;
#X obj 175 5 vsl 15 128 0 2 0 0 empty empty empty 0 -9 0 10 -262144
-1 -1 4300 1;
#X obj 203 3 vsl 15 128 0 2 0 0 empty empty empty 0 -9 0 10 -262144
-1 -1 5400 1;
#X obj 237 6 vsl 15 128 0 2 0 0 empty empty empty 0 -9 0 10 -262144
-1 -1 5200 1;
#X obj 268 2 vsl 15 128 0 2 0 0 empty empty empty 0 -9 0 10 -262144
-1 -1 5600 1;
#X obj 299 2 vsl 15 128 0 2 0 0 empty empty empty 0 -9 0 10 -262144
-1 -1 5000 1;
#X floatatom 345 105 5 0 0 0 - - -;
#X obj 464 298 stutter~;
#X obj 492 79 metro 200;
#X msg 504 230 5000;
#X msg 546 232 7000;
#X msg 588 231 4410;
#X msg 630 228 6615;
#X msg 681 233 8820;
#X msg 719 235 11025;
#X obj 515 174 select 0 1 2 3 4 5 6;
#X obj 490 106 random 7;
#X obj 313 307 *~;
#X obj 421 129 vsl 15 128 0 2 0 0 empty empty empty 0 -9 0 10 -262144
-1 -1 0 1;
#X obj 46 309 writesf~;
#X msg 28 235 open beat.wav;
#X msg 56 260 start;
#X msg 152 280 stop;
#X obj 184 191 *~;
#X obj 72 39 vsl 15 128 0 2 0 0 empty empty empty 0 -9 0 10 -262144
-1 -1 0 1;
#X obj 104 142 r~ fmsynth;
#X connect 1 0 9 0;
#X connect 1 0 25 0;
#X connect 2 0 1 0;
#X connect 2 0 10 0;
#X connect 3 0 1 1;
#X connect 4 0 1 2;
#X connect 5 0 1 3;
#X connect 6 0 1 4;
#X connect 7 0 1 5;
#X connect 8 0 1 6;
#X connect 8 0 10 1;
#X connect 9 0 19 0;
#X connect 10 0 18 0;
#X connect 11 0 9 1;
#X connect 12 0 9 1;
#X connect 13 0 9 1;
#X connect 14 0 9 1;
#X connect 15 0 9 1;
#X connect 16 0 9 1;
#X connect 17 0 11 0;
#X connect 17 1 12 0;
#X connect 17 2 13 0;
#X connect 17 3 14 0;
#X connect 17 4 15 0;
#X connect 17 5 16 0;
#X connect 18 0 17 0;
#X connect 19 0 0 1;
#X connect 19 0 0 0;
#X connect 19 0 21 0;
#X connect 20 0 19 1;
#X connect 22 0 21 0;
#X connect 23 0 21 0;
#X connect 24 0 21 0;
#X connect 25 0 0 0;
#X connect 25 0 0 1;
#X connect 25 0 21 0;
#X connect 26 0 25 1;
#X connect 27 0 25 0;
