#N canvas 230 31 863 700 10;
#X obj 190 201 mtof~;
#X obj 193 153 hsl 128 15 0 127 0 0 empty empty empty -2 -8 0 10 -262144
-1 -1 0 1;
#X obj 208 275 osc~;
#X floatatom 208 238 5 0 0 0 - - -;
#X obj 208 371 *~;
#X floatatom 223 325 5 0 0 0 - - -;
#X obj 193 410 +~;
#X obj 193 466 osc~;
#X obj 193 519 outlet~;
#X obj 190 98 inlet;
#X obj 308 556 tabwrite~ fm;
#N canvas 0 22 450 278 (subpatch) 0;
#X array fm 100 float 3;
#A 0 0 0 0 0 0 0 0 0 0 0 0 0 0 0 0 0 0 0 0 0 0 0 0 0 0 0 0 0 0 0 0
0 0 0 0 0 0 0 0 0 0 0 0 0 0 0 0 0 0 0 0 0 0 0 0 0 0 0 0 0 0 0 0 0 0
0 0 0 0 0 0 0 0 0 0 0 0 0 0 0 0 0 0 0 0 0 0 0 0 0 0 0 0 0 0 0 0 0 0
0;
#X coords 0 1 99 -1 200 140 1;
#X restore 479 445 graph;
#X obj 330 515 metro 100;
#X obj 330 476 tgl 15 0 empty empty empty 17 7 0 10 -262144 -1 -1 0
1;
#X connect 0 0 6 0;
#X connect 1 0 0 0;
#X connect 2 0 4 0;
#X connect 3 0 2 0;
#X connect 4 0 6 1;
#X connect 5 0 4 1;
#X connect 6 0 7 0;
#X connect 7 0 8 0;
#X connect 7 0 10 0;
#X connect 9 0 1 0;
#X connect 12 0 10 0;
#X connect 13 0 12 0;
